<svg xmlns="http://www.w3.org/2000/svg" xmlns:xlink="http://www.w3.org/1999/xlink" width="500" zoomAndPan="magnify" viewBox="0 0 375 374.999991" height="500" preserveAspectRatio="xMidYMid meet" version="1.0"><defs><clipPath id="7311b6ae22"><path d="M 0 0 L 374.519531 0 L 374.519531 374.519531 L 0 374.519531 Z M 0 0 " clip-rule="nonzero"/></clipPath><clipPath id="a0d9db7feb"><path d="M 30.359375 62 L 351 62 L 351 374.519531 L 30.359375 374.519531 Z M 30.359375 62 " clip-rule="nonzero"/></clipPath><clipPath id="9b15fffab8"><path d="M 0 188.445312 L 187.8125 0.632812 L 381.042969 193.820312 L 193.1875 381.675781 Z M 0 188.445312 " clip-rule="nonzero"/></clipPath><clipPath id="c08dc85752"><path d="M -0.554688 189.039062 L 187.257812 1.1875 L 380.488281 194.375 L 192.636719 382.226562 Z M -0.554688 189.039062 " clip-rule="nonzero"/></clipPath><clipPath id="e7e71c39c6"><path d="M 28 31 L 349 31 L 349 352 L 28 352 Z M 28 31 " clip-rule="nonzero"/></clipPath><clipPath id="0e9bdbe972"><path d="M 0 188.445312 L 187.8125 0.632812 L 381.042969 193.820312 L 193.1875 381.675781 Z M 0 188.445312 " clip-rule="nonzero"/></clipPath><clipPath id="e5a13501ee"><path d="M -0.554688 189.039062 L 187.257812 1.1875 L 380.488281 194.375 L 192.636719 382.226562 Z M -0.554688 189.039062 " clip-rule="nonzero"/></clipPath><clipPath id="029747db7b"><path d="M 28 1 L 350 1 L 350 322 L 28 322 Z M 28 1 " clip-rule="nonzero"/></clipPath><clipPath id="8417459b77"><path d="M 0 188.445312 L 187.8125 0.632812 L 381.042969 193.820312 L 193.1875 381.675781 Z M 0 188.445312 " clip-rule="nonzero"/></clipPath><clipPath id="ef21709937"><path d="M -0.554688 189.039062 L 187.257812 1.1875 L 380.488281 194.375 L 192.636719 382.226562 Z M -0.554688 189.039062 " clip-rule="nonzero"/></clipPath></defs><rect x="-37.5" width="450" fill="#ffffff" y="-37.499999" height="449.999989" fill-opacity="1"/><rect x="-37.5" width="450" fill="#ffffff" y="-37.499999" height="449.999989" fill-opacity="1"/><rect x="-37.5" width="450" fill="#ffffff" y="-37.499999" height="449.999989" fill-opacity="1"/><g clip-path="url(#7311b6ae22)"><rect x="-37.5" width="450" fill="#ffffff" y="-37.499999" height="449.999989" fill-opacity="1"/><rect x="-37.5" width="450" fill="#ffffff" y="-37.499999" height="449.999989" fill-opacity="1"/><rect x="-37.5" width="450" fill="#001f3d" y="-37.499999" height="449.999989" fill-opacity="1"/></g><g clip-path="url(#a0d9db7feb)"><g clip-path="url(#9b15fffab8)"><g clip-path="url(#c08dc85752)"><path fill="#f8dcbf" d="M 350.917969 223.785156 L 192.558594 382.148438 L 30.835938 220.425781 L 189.195312 62.0625 Z M 192.515625 377.050781 L 345.820312 223.746094 L 189.234375 67.164062 L 35.933594 220.464844 Z M 192.515625 377.050781 " fill-opacity="1" fill-rule="nonzero"/></g></g></g><g clip-path="url(#e7e71c39c6)"><g clip-path="url(#0e9bdbe972)"><g clip-path="url(#e5a13501ee)"><path fill="#f8dcbf" d="M 348.902344 193.109375 L 190.539062 351.472656 L 28.777344 189.75 L 187.140625 31.386719 Z M 190.460938 346.371094 L 343.804688 193.070312 L 187.21875 36.488281 L 33.917969 189.789062 Z M 190.460938 346.371094 " fill-opacity="1" fill-rule="nonzero"/></g></g></g><g clip-path="url(#029747db7b)"><g clip-path="url(#8417459b77)"><g clip-path="url(#ef21709937)"><path fill="#f8dcbf" d="M 349.101562 162.988281 L 190.738281 321.347656 L 28.976562 159.628906 L 187.339844 1.265625 Z M 190.660156 316.25 L 343.960938 162.949219 L 187.417969 6.363281 L 34.074219 159.667969 Z M 190.660156 316.25 " fill-opacity="1" fill-rule="nonzero"/></g></g></g><path fill="#f8dcbf" d="M 161.640625 131.492188 L 161.640625 203.914062 C 161.640625 213.714844 158.875 221.265625 153.417969 226.523438 C 148.042969 231.703125 140.292969 234.273438 130.175781 234.273438 C 127.527344 234.273438 124.878906 233.878906 122.269531 233.167969 C 119.621094 232.535156 117.40625 231.742188 115.628906 230.792969 C 113.808594 229.84375 112.1875 228.898438 110.726562 227.949219 C 109.382812 227 108.355469 226.207031 107.722656 225.574219 L 106.613281 224.628906 L 113.886719 205.335938 C 118.710938 209.882812 123.097656 212.136719 127.011719 212.136719 C 130.492188 212.136719 133.257812 210.988281 135.394531 208.65625 C 137.605469 206.363281 138.714844 202.804688 138.714844 198.0625 L 138.714844 131.492188 Z M 161.640625 131.492188 " fill-opacity="1" fill-rule="nonzero"/><path fill="#f8dcbf" d="M 266.269531 175.925781 L 266.269531 197.746094 C 263.621094 209.761719 257.890625 218.894531 249.035156 225.101562 C 240.257812 231.230469 230.535156 234.273438 219.78125 234.273438 C 206.066406 234.273438 194.402344 229.171875 184.835938 218.933594 C 175.347656 208.734375 170.605469 196.441406 170.605469 182.089844 C 170.605469 167.347656 175.269531 154.972656 184.679688 144.933594 C 194.046875 134.8125 205.75 129.753906 219.78125 129.753906 C 236.109375 129.753906 249.035156 135.523438 258.523438 146.988281 L 243.5 163.433594 C 238.125 154.816406 230.613281 150.464844 221.046875 150.464844 C 213.972656 150.464844 207.921875 153.589844 202.863281 159.796875 C 197.882812 165.921875 195.429688 173.355469 195.429688 182.089844 C 195.429688 190.628906 197.882812 197.984375 202.863281 204.070312 C 207.921875 210.078125 213.972656 213.085938 221.046875 213.085938 C 226.9375 213.085938 232.035156 211.34375 236.386719 207.867188 C 240.695312 204.308594 242.867188 199.566406 242.867188 193.636719 L 219.78125 193.636719 L 219.78125 175.925781 Z M 266.269531 175.925781 " fill-opacity="1" fill-rule="nonzero"/></svg>