<svg xmlns="http://www.w3.org/2000/svg" xmlns:xlink="http://www.w3.org/1999/xlink" width="500" zoomAndPan="magnify" viewBox="0 0 375 374.999991" height="500" preserveAspectRatio="xMidYMid meet" version="1.0"><defs><g/><clipPath id="d03cb5f666"><path d="M 50 41.066406 L 144.210938 41.066406 L 144.210938 195 L 50 195 Z M 50 41.066406 " clip-rule="nonzero"/></clipPath><clipPath id="1c763d0eb6"><path d="M 24.960938 90 L 119 90 L 119 243.566406 L 24.960938 243.566406 Z M 24.960938 90 " clip-rule="nonzero"/></clipPath></defs><g clip-path="url(#d03cb5f666)"><path fill="#00adef" d="M 143.78125 191.605469 C 143.636719 190.761719 143.421875 189.730469 143.191406 188.507812 C 143.054688 187.902344 142.902344 187.25 142.742188 186.554688 C 142.589844 185.855469 142.394531 185.125 142.171875 184.351562 C 141.324219 181.257812 140.117188 177.515625 138.257812 173.402344 C 137.8125 172.363281 137.285156 171.328125 136.765625 170.242188 C 136.207031 169.183594 135.65625 168.074219 135.015625 166.980469 C 133.773438 164.765625 132.351562 162.496094 130.738281 160.230469 C 129.296875 158.195312 127.703125 156.148438 125.980469 154.117188 C 126.863281 155.011719 127.707031 155.902344 128.507812 156.777344 C 131.566406 160.128906 134.019531 163.285156 135.921875 165.984375 C 136.875 167.335938 137.671875 168.578125 138.378906 169.65625 C 139.046875 170.757812 139.652344 171.675781 140.078125 172.457031 C 140.523438 173.230469 140.863281 173.824219 141.097656 174.222656 C 141.3125 174.628906 141.425781 174.835938 141.425781 174.835938 C 141.425781 174.835938 141.339844 174.617188 141.179688 174.183594 C 141.003906 173.753906 140.742188 173.125 140.398438 172.296875 C 140.0625 171.464844 139.582031 170.472656 139.042969 169.289062 C 138.46875 168.125 137.808594 166.777344 136.976562 165.324219 C 135.34375 162.402344 133.203125 158.914062 130.347656 155.238281 C 127.527344 151.542969 124.066406 147.601562 120.007812 143.703125 C 115.960938 139.789062 111.351562 135.890625 106.433594 132.054688 C 101.519531 128.214844 96.304688 124.417969 91.207031 120.503906 C 88.660156 118.546875 86.152344 116.550781 83.777344 114.480469 C 81.417969 112.40625 79.15625 110.277344 77.167969 108.050781 C 75.171875 105.828125 73.453125 103.511719 72.074219 101.109375 C 71.371094 99.910156 70.804688 98.675781 70.277344 97.429688 C 69.765625 96.179688 69.367188 94.890625 69.023438 93.589844 C 68.71875 92.269531 68.4375 90.9375 68.304688 89.558594 C 68.253906 89.21875 68.226562 88.871094 68.207031 88.523438 L 68.128906 87.484375 C 68.136719 86.820312 68.132812 86.160156 68.125 85.5 C 68.210938 82.878906 68.671875 80.34375 69.503906 77.910156 L 69.84375 77.003906 C 69.953125 76.703125 70.046875 76.394531 70.203125 76.109375 C 70.480469 75.523438 70.757812 74.933594 71.035156 74.351562 C 71.371094 73.785156 71.699219 73.21875 72.015625 72.644531 C 72.355469 72.082031 72.761719 71.550781 73.125 70.996094 C 74.675781 68.828125 76.53125 66.820312 78.578125 64.984375 C 80.652344 63.167969 82.917969 61.546875 85.25 60.074219 C 86.449219 59.378906 87.613281 58.65625 88.847656 58.050781 C 90.046875 57.386719 91.300781 56.84375 92.519531 56.269531 C 97.46875 54.082031 102.484375 52.59375 107.199219 51.582031 C 111.921875 50.585938 116.359375 50.078125 120.292969 49.929688 C 124.230469 49.800781 127.660156 49.964844 130.46875 50.230469 C 131.859375 50.414062 133.125 50.511719 134.195312 50.71875 C 135.269531 50.898438 136.203125 51.011719 136.925781 51.199219 C 138.402344 51.507812 139.1875 51.675781 139.1875 51.675781 C 139.1875 51.675781 138.4375 51.390625 137.023438 50.855469 C 136.320312 50.570312 135.417969 50.320312 134.359375 49.984375 C 133.3125 49.621094 132.0625 49.355469 130.667969 49.003906 C 127.859375 48.402344 124.386719 47.777344 120.320312 47.542969 C 116.257812 47.292969 111.617188 47.355469 106.597656 48.015625 C 104.289062 48.324219 101.894531 48.75 99.457031 49.3125 C 100.617188 48.941406 101.757812 48.605469 102.863281 48.308594 C 106.863281 47.261719 110.425781 46.574219 113.390625 46.167969 C 114.875 45.980469 116.203125 45.84375 117.363281 45.710938 C 118.527344 45.625 119.515625 45.550781 120.320312 45.492188 C 121.121094 45.4375 121.738281 45.433594 122.15625 45.414062 C 122.570312 45.398438 122.789062 45.390625 122.789062 45.390625 C 122.789062 45.390625 122.574219 45.367188 122.160156 45.320312 C 121.742188 45.28125 121.128906 45.195312 120.320312 45.132812 C 119.511719 45.085938 118.515625 45.027344 117.34375 44.957031 C 116.167969 44.933594 114.8125 44.898438 113.292969 44.933594 C 110.257812 45.007812 106.554688 45.257812 102.355469 45.976562 C 101.417969 46.136719 100.445312 46.320312 99.460938 46.527344 C 99.480469 46.519531 99.503906 46.511719 99.523438 46.503906 C 104.554688 45.003906 109.324219 44.101562 113.59375 43.578125 C 117.863281 43.089844 121.632812 42.953125 124.742188 42.976562 C 126.296875 43.035156 127.691406 43.03125 128.898438 43.140625 C 130.109375 43.226562 131.144531 43.265625 131.976562 43.386719 C 133.648438 43.574219 134.539062 43.671875 134.539062 43.671875 C 134.539062 43.671875 133.667969 43.453125 132.035156 43.035156 C 131.21875 42.8125 130.195312 42.632812 128.992188 42.390625 C 127.792969 42.125 126.394531 41.957031 124.828125 41.738281 C 121.691406 41.378906 117.84375 41.058594 113.414062 41.199219 C 108.996094 41.332031 103.984375 41.808594 98.625 43.003906 C 93.273438 44.199219 87.539062 46.011719 81.8125 48.847656 C 78.945312 50.261719 76.117188 51.972656 73.335938 53.929688 C 70.589844 55.9375 67.9375 58.25 65.511719 60.910156 C 64.925781 61.597656 64.335938 62.289062 63.746094 62.980469 C 63.476562 63.34375 63.207031 63.714844 62.9375 64.082031 C 63.082031 63.851562 63.234375 63.613281 63.378906 63.382812 C 63.613281 62.992188 63.882812 62.644531 64.144531 62.292969 C 64.40625 61.9375 64.664062 61.589844 64.921875 61.242188 C 65.179688 60.898438 65.429688 60.550781 65.691406 60.21875 C 65.960938 59.898438 66.230469 59.582031 66.496094 59.265625 C 67.035156 58.648438 67.535156 58.003906 68.074219 57.441406 C 69.15625 56.316406 70.164062 55.203125 71.207031 54.289062 C 71.722656 53.816406 72.21875 53.355469 72.699219 52.914062 C 73.199219 52.5 73.679688 52.097656 74.144531 51.710938 C 74.605469 51.324219 75.046875 50.945312 75.476562 50.597656 C 75.921875 50.265625 76.339844 49.949219 76.738281 49.648438 C 78.328125 48.425781 79.636719 47.558594 80.519531 46.945312 C 80.960938 46.632812 81.300781 46.398438 81.539062 46.253906 C 81.773438 46.109375 81.894531 46.03125 81.894531 46.03125 C 81.894531 46.03125 81.757812 46.078125 81.496094 46.175781 C 81.230469 46.261719 80.851562 46.417969 80.351562 46.628906 C 79.371094 47.070312 77.875 47.625 76.078125 48.597656 C 75.625 48.832031 75.148438 49.078125 74.644531 49.335938 C 74.148438 49.609375 73.640625 49.921875 73.101562 50.234375 C 72.570312 50.554688 72.011719 50.886719 71.4375 51.234375 C 70.878906 51.617188 70.300781 52.019531 69.703125 52.433594 C 68.492188 53.230469 67.285156 54.234375 65.992188 55.265625 C 65.34375 55.785156 64.734375 56.394531 64.082031 56.984375 C 63.761719 57.285156 63.433594 57.589844 63.105469 57.898438 C 62.789062 58.21875 62.480469 58.5625 62.164062 58.902344 C 61.847656 59.246094 61.527344 59.59375 61.203125 59.941406 C 60.882812 60.296875 60.550781 60.644531 60.257812 61.039062 C 59.652344 61.8125 59.035156 62.605469 58.40625 63.40625 C 57.828125 64.257812 57.257812 65.140625 56.679688 66.035156 C 56.375 66.476562 56.128906 66.960938 55.867188 67.441406 C 55.609375 67.925781 55.347656 68.410156 55.085938 68.902344 C 53.074219 72.867188 51.597656 77.496094 51.042969 82.394531 C 50.976562 83.003906 50.910156 83.621094 50.84375 84.238281 C 50.8125 84.851562 50.808594 85.472656 50.789062 86.09375 C 50.78125 86.714844 50.769531 87.339844 50.761719 87.964844 C 50.746094 88.59375 50.804688 89.183594 50.824219 89.796875 C 50.964844 92.234375 51.265625 94.734375 51.847656 97.214844 C 52.398438 99.699219 53.179688 102.171875 54.164062 104.554688 C 55.148438 106.941406 56.355469 109.222656 57.6875 111.375 C 59.03125 113.519531 60.511719 115.53125 62.066406 117.402344 C 63.628906 119.265625 65.265625 120.992188 66.933594 122.597656 C 68.589844 124.214844 70.285156 125.699219 71.980469 127.082031 C 73.675781 128.476562 75.367188 129.777344 77.027344 131.007812 C 80.359375 133.472656 83.605469 135.628906 86.65625 137.628906 C 89.707031 139.617188 92.570312 141.429688 95.179688 143.097656 C 97.792969 144.761719 100.167969 146.265625 102.242188 147.625 C 104.300781 149 106.105469 150.175781 107.554688 151.183594 C 108.28125 151.683594 108.929688 152.132812 109.492188 152.523438 C 110.058594 152.910156 110.539062 153.242188 110.917969 153.523438 C 111.695312 154.0625 112.105469 154.351562 112.105469 154.351562 C 112.105469 154.351562 111.777344 153.96875 111.160156 153.253906 C 110.847656 152.898438 110.460938 152.460938 109.992188 151.953125 C 109.527344 151.441406 108.988281 150.859375 108.359375 150.230469 C 107.121094 148.953125 105.578125 147.414062 103.714844 145.734375 C 101.867188 144.039062 99.734375 142.152344 97.324219 140.160156 C 96.019531 139.078125 94.628906 137.953125 93.1875 136.796875 C 97.347656 139.660156 101.347656 142.417969 105.066406 145.1875 C 109.875 148.742188 114.222656 152.308594 117.980469 155.863281 C 121.75 159.410156 124.933594 162.925781 127.519531 166.246094 C 130.101562 169.5625 132.121094 172.648438 133.65625 175.273438 C 135.183594 177.898438 136.246094 180.054688 136.964844 181.527344 C 137.648438 183.019531 138.015625 183.8125 138.015625 183.8125 C 138.015625 183.8125 137.765625 182.972656 137.296875 181.394531 C 136.765625 179.839844 136.035156 177.523438 134.765625 174.707031 C 133.519531 171.882812 131.839844 168.496094 129.476562 164.859375 C 129.003906 164.113281 128.496094 163.355469 127.96875 162.589844 C 129.617188 164.597656 131.109375 166.601562 132.445312 168.574219 C 133.148438 169.574219 133.773438 170.589844 134.402344 171.566406 C 134.992188 172.5625 135.59375 173.515625 136.117188 174.480469 C 138.238281 178.304688 139.832031 181.800781 140.988281 184.746094 C 141.28125 185.480469 141.554688 186.179688 141.785156 186.84375 C 142.027344 187.507812 142.25 188.132812 142.460938 188.710938 C 142.839844 189.878906 143.191406 190.871094 143.429688 191.6875 C 143.914062 193.320312 144.175781 194.191406 144.175781 194.191406 C 144.175781 194.191406 144.039062 193.292969 143.78125 191.605469 " fill-opacity="1" fill-rule="nonzero"/></g><g clip-path="url(#1c763d0eb6)"><path fill="#3871c1" d="M 117.277344 187.414062 C 116.726562 184.929688 115.945312 182.460938 114.960938 180.074219 C 113.976562 177.6875 112.769531 175.410156 111.441406 173.257812 C 110.09375 171.113281 108.613281 169.101562 107.058594 167.226562 C 105.496094 165.367188 103.863281 163.640625 102.191406 162.035156 C 100.535156 160.414062 98.839844 158.933594 97.144531 157.546875 C 95.449219 156.15625 93.761719 154.855469 92.097656 153.625 C 88.765625 151.160156 85.519531 149.003906 82.472656 147.003906 C 79.417969 145.015625 76.554688 143.203125 73.945312 141.535156 C 71.332031 139.871094 68.957031 138.367188 66.882812 137.003906 C 64.824219 135.628906 63.019531 134.457031 61.570312 133.449219 C 60.84375 132.945312 60.195312 132.496094 59.632812 132.109375 C 59.066406 131.722656 58.585938 131.386719 58.207031 131.109375 C 57.429688 130.566406 57.019531 130.277344 57.019531 130.277344 C 57.019531 130.277344 57.347656 130.660156 57.964844 131.378906 C 58.277344 131.734375 58.664062 132.171875 59.132812 132.679688 C 59.597656 133.1875 60.136719 133.769531 60.765625 134.402344 C 62.007812 135.679688 63.546875 137.214844 65.410156 138.898438 C 67.257812 140.597656 69.390625 142.480469 71.800781 144.472656 C 73.109375 145.554688 74.496094 146.675781 75.941406 147.835938 C 71.78125 144.96875 67.777344 142.210938 64.058594 139.445312 C 59.25 135.886719 54.902344 132.320312 51.144531 128.769531 C 47.375 125.222656 44.191406 121.707031 41.605469 118.386719 C 39.023438 115.070312 37.003906 111.984375 35.46875 109.359375 C 33.941406 106.734375 32.878906 104.578125 32.160156 103.101562 C 31.476562 101.613281 31.109375 100.816406 31.109375 100.816406 C 31.109375 100.816406 31.359375 101.65625 31.828125 103.234375 C 32.359375 104.789062 33.089844 107.105469 34.359375 109.925781 C 35.605469 112.75 37.285156 116.136719 39.648438 119.769531 C 40.121094 120.515625 40.628906 121.273438 41.15625 122.042969 C 39.507812 120.035156 38.015625 118.027344 36.679688 116.058594 C 35.976562 115.058594 35.351562 114.042969 34.722656 113.066406 C 34.132812 112.070312 33.53125 111.113281 33.007812 110.152344 C 30.886719 106.324219 29.292969 102.828125 28.136719 99.886719 C 27.84375 99.152344 27.574219 98.453125 27.339844 97.785156 C 27.101562 97.121094 26.875 96.5 26.664062 95.921875 C 26.285156 94.75 25.9375 93.757812 25.699219 92.941406 C 25.210938 91.308594 24.949219 90.441406 24.949219 90.441406 C 24.949219 90.441406 25.085938 91.339844 25.34375 93.027344 C 25.488281 93.867188 25.703125 94.902344 25.933594 96.125 C 26.074219 96.730469 26.222656 97.382812 26.382812 98.074219 C 26.535156 98.773438 26.730469 99.507812 26.953125 100.277344 C 27.800781 103.375 29.007812 107.113281 30.867188 111.230469 C 31.3125 112.265625 31.839844 113.304688 32.359375 114.386719 C 32.917969 115.449219 33.46875 116.554688 34.109375 117.652344 C 35.351562 119.867188 36.773438 122.132812 38.390625 124.402344 C 39.828125 126.4375 41.425781 128.480469 43.144531 130.515625 C 42.261719 129.617188 41.417969 128.730469 40.617188 127.851562 C 37.558594 124.503906 35.105469 121.34375 33.203125 118.644531 C 32.25 117.296875 31.453125 116.054688 30.746094 114.976562 C 30.078125 113.875 29.472656 112.953125 29.046875 112.171875 C 28.601562 111.398438 28.261719 110.808594 28.027344 110.410156 C 27.8125 110.003906 27.699219 109.792969 27.699219 109.792969 C 27.699219 109.792969 27.785156 110.015625 27.945312 110.449219 C 28.121094 110.875 28.382812 111.507812 28.726562 112.335938 C 29.0625 113.167969 29.546875 114.15625 30.082031 115.34375 C 30.65625 116.507812 31.316406 117.851562 32.148438 119.308594 C 33.78125 122.226562 35.921875 125.71875 38.777344 129.390625 C 41.597656 133.085938 45.058594 137.03125 49.117188 140.929688 C 53.164062 144.84375 57.773438 148.742188 62.691406 152.578125 C 67.605469 156.417969 72.824219 160.214844 77.917969 164.128906 C 80.464844 166.082031 82.972656 168.082031 85.347656 170.152344 C 87.707031 172.226562 89.972656 174.355469 91.957031 176.578125 C 93.953125 178.804688 95.671875 181.121094 97.050781 183.523438 C 97.753906 184.71875 98.320312 185.953125 98.851562 187.199219 C 99.359375 188.453125 99.757812 189.738281 100.101562 191.042969 C 100.40625 192.363281 100.6875 193.691406 100.824219 195.070312 C 100.871094 195.410156 100.898438 195.757812 100.917969 196.105469 L 100.996094 197.148438 C 100.988281 197.8125 100.992188 198.46875 101.003906 199.132812 C 100.914062 201.753906 100.453125 204.289062 99.621094 206.722656 L 99.285156 207.625 C 99.171875 207.929688 99.078125 208.234375 98.921875 208.523438 C 98.644531 209.109375 98.367188 209.695312 98.089844 210.28125 C 97.753906 210.84375 97.429688 211.414062 97.109375 211.984375 C 96.769531 212.550781 96.363281 213.082031 96 213.636719 C 94.449219 215.800781 92.59375 217.8125 90.546875 219.648438 C 88.472656 221.460938 86.207031 223.082031 83.875 224.558594 C 82.675781 225.25 81.511719 225.976562 80.277344 226.582031 C 79.078125 227.246094 77.824219 227.789062 76.605469 228.363281 C 71.660156 230.546875 66.640625 232.039062 61.925781 233.046875 C 57.203125 234.046875 52.765625 234.554688 48.832031 234.699219 C 44.898438 234.832031 41.464844 234.667969 38.65625 234.402344 C 37.265625 234.214844 36 234.121094 34.933594 233.914062 C 33.855469 233.730469 32.921875 233.617188 32.199219 233.433594 C 30.722656 233.121094 29.9375 232.957031 29.9375 232.957031 C 29.9375 232.957031 30.691406 233.242188 32.101562 233.777344 C 32.804688 234.0625 33.710938 234.3125 34.761719 234.648438 C 35.8125 235.007812 37.0625 235.277344 38.457031 235.625 C 41.265625 236.230469 44.738281 236.855469 48.804688 237.085938 C 52.867188 237.339844 57.507812 237.277344 62.527344 236.613281 C 64.835938 236.308594 67.230469 235.882812 69.667969 235.320312 C 68.507812 235.691406 67.367188 236.027344 66.261719 236.324219 C 62.265625 237.367188 58.699219 238.058594 55.734375 238.460938 C 54.253906 238.652344 52.921875 238.789062 51.761719 238.921875 C 50.597656 239.007812 49.609375 239.082031 48.808594 239.140625 C 48.003906 239.195312 47.386719 239.199219 46.96875 239.21875 C 46.554688 239.234375 46.339844 239.238281 46.339844 239.238281 C 46.339844 239.238281 46.550781 239.261719 46.964844 239.308594 C 47.382812 239.351562 47.996094 239.433594 48.804688 239.5 C 49.613281 239.546875 50.609375 239.605469 51.78125 239.675781 C 52.957031 239.699219 54.3125 239.730469 55.832031 239.699219 C 58.867188 239.625 62.570312 239.375 66.769531 238.652344 C 67.710938 238.496094 68.679688 238.3125 69.664062 238.105469 C 69.644531 238.113281 69.621094 238.117188 69.601562 238.125 C 64.570312 239.628906 59.800781 240.53125 55.535156 241.050781 C 51.261719 241.542969 47.492188 241.679688 44.382812 241.65625 C 42.828125 241.597656 41.433594 241.597656 40.226562 241.492188 C 39.019531 241.402344 37.980469 241.367188 37.148438 241.246094 C 35.476562 241.058594 34.585938 240.957031 34.585938 240.957031 C 34.585938 240.957031 35.457031 241.179688 37.089844 241.597656 C 37.90625 241.816406 38.929688 241.996094 40.132812 242.238281 C 41.332031 242.503906 42.730469 242.675781 44.296875 242.890625 C 47.433594 243.253906 51.28125 243.570312 55.710938 243.433594 C 60.132812 243.296875 65.140625 242.824219 70.5 241.628906 C 75.851562 240.433594 81.585938 238.621094 87.3125 235.78125 C 90.179688 234.367188 93.011719 232.65625 95.789062 230.703125 C 98.535156 228.691406 101.1875 226.382812 103.613281 223.71875 C 104.199219 223.035156 104.789062 222.34375 105.382812 221.652344 C 105.648438 221.285156 105.917969 220.917969 106.1875 220.550781 C 106.042969 220.78125 105.890625 221.019531 105.746094 221.25 C 105.511719 221.636719 105.242188 221.984375 104.980469 222.339844 C 104.71875 222.691406 104.460938 223.042969 104.203125 223.386719 C 103.945312 223.730469 103.695312 224.082031 103.433594 224.414062 C 103.164062 224.734375 102.894531 225.050781 102.628906 225.367188 C 102.089844 225.984375 101.59375 226.628906 101.050781 227.191406 C 99.96875 228.316406 98.960938 229.429688 97.917969 230.34375 C 97.402344 230.816406 96.90625 231.273438 96.425781 231.71875 C 95.925781 232.132812 95.445312 232.535156 94.984375 232.921875 C 94.519531 233.304688 94.078125 233.6875 93.648438 234.035156 C 93.207031 234.363281 92.785156 234.683594 92.386719 234.984375 C 90.796875 236.207031 89.488281 237.074219 88.605469 237.6875 C 88.164062 238 87.824219 238.234375 87.585938 238.375 C 87.351562 238.523438 87.230469 238.601562 87.230469 238.601562 C 87.230469 238.601562 87.367188 238.550781 87.628906 238.457031 C 87.894531 238.371094 88.273438 238.214844 88.773438 238.003906 C 89.753906 237.5625 91.253906 237.007812 93.046875 236.03125 C 93.5 235.796875 93.976562 235.554688 94.480469 235.292969 C 94.976562 235.019531 95.484375 234.710938 96.023438 234.398438 C 96.554688 234.078125 97.113281 233.746094 97.6875 233.398438 C 98.246094 233.011719 98.824219 232.613281 99.421875 232.199219 C 100.632812 231.402344 101.839844 230.398438 103.132812 229.363281 C 103.78125 228.847656 104.390625 228.238281 105.042969 227.648438 C 105.363281 227.34375 105.691406 227.039062 106.019531 226.730469 C 106.335938 226.410156 106.644531 226.066406 106.960938 225.726562 C 107.277344 225.386719 107.597656 225.039062 107.921875 224.6875 C 108.242188 224.335938 108.574219 223.988281 108.867188 223.59375 C 109.472656 222.816406 110.089844 222.027344 110.71875 221.222656 C 111.296875 220.375 111.867188 219.492188 112.449219 218.597656 C 112.75 218.15625 112.996094 217.671875 113.257812 217.191406 C 113.515625 216.707031 113.777344 216.21875 114.039062 215.730469 C 116.050781 211.765625 117.527344 207.132812 118.082031 202.238281 C 118.148438 201.625 118.214844 201.011719 118.28125 200.394531 C 118.3125 199.777344 118.316406 199.160156 118.335938 198.539062 C 118.347656 197.917969 118.355469 197.292969 118.367188 196.667969 C 118.378906 196.039062 118.320312 195.449219 118.300781 194.832031 C 118.160156 192.394531 117.859375 189.898438 117.277344 187.414062 " fill-opacity="1" fill-rule="nonzero"/></g><g fill="#b8eaf6" fill-opacity="1"><g transform="translate(147.654396, 204.937953)"><g><path d="M 0.921875 -1.859375 C 0.609375 -2.242188 0.453125 -2.585938 0.453125 -2.890625 C 0.453125 -3.203125 0.710938 -3.613281 1.234375 -4.125 C 1.535156 -4.414062 1.851562 -4.5625 2.1875 -4.5625 C 2.519531 -4.5625 2.988281 -4.257812 3.59375 -3.65625 C 3.757812 -3.445312 4 -3.25 4.3125 -3.0625 C 4.632812 -2.875 4.925781 -2.78125 5.1875 -2.78125 C 6.3125 -2.78125 6.875 -3.238281 6.875 -4.15625 C 6.875 -4.4375 6.71875 -4.671875 6.40625 -4.859375 C 6.101562 -5.046875 5.722656 -5.179688 5.265625 -5.265625 C 4.804688 -5.347656 4.3125 -5.484375 3.78125 -5.671875 C 3.25 -5.859375 2.753906 -6.078125 2.296875 -6.328125 C 1.835938 -6.578125 1.453125 -6.976562 1.140625 -7.53125 C 0.835938 -8.082031 0.6875 -8.742188 0.6875 -9.515625 C 0.6875 -10.566406 1.082031 -11.488281 1.875 -12.28125 C 2.664062 -13.070312 3.738281 -13.46875 5.09375 -13.46875 C 5.820312 -13.46875 6.484375 -13.375 7.078125 -13.1875 C 7.671875 -13 8.082031 -12.8125 8.3125 -12.625 L 8.765625 -12.28125 C 9.140625 -11.925781 9.328125 -11.628906 9.328125 -11.390625 C 9.328125 -11.148438 9.179688 -10.816406 8.890625 -10.390625 C 8.484375 -9.785156 8.0625 -9.484375 7.625 -9.484375 C 7.375 -9.484375 7.0625 -9.609375 6.6875 -9.859375 C 6.65625 -9.878906 6.585938 -9.9375 6.484375 -10.03125 C 6.378906 -10.125 6.285156 -10.203125 6.203125 -10.265625 C 5.953125 -10.421875 5.628906 -10.5 5.234375 -10.5 C 4.835938 -10.5 4.507812 -10.40625 4.25 -10.21875 C 4 -10.03125 3.875 -9.769531 3.875 -9.4375 C 3.875 -9.113281 4.023438 -8.847656 4.328125 -8.640625 C 4.640625 -8.429688 5.023438 -8.289062 5.484375 -8.21875 C 5.941406 -8.144531 6.441406 -8.035156 6.984375 -7.890625 C 7.523438 -7.742188 8.023438 -7.5625 8.484375 -7.34375 C 8.941406 -7.125 9.320312 -6.742188 9.625 -6.203125 C 9.9375 -5.671875 10.09375 -5.015625 10.09375 -4.234375 C 10.09375 -3.453125 9.929688 -2.757812 9.609375 -2.15625 C 9.296875 -1.5625 8.890625 -1.101562 8.390625 -0.78125 C 7.410156 -0.132812 6.367188 0.1875 5.265625 0.1875 C 4.691406 0.1875 4.148438 0.117188 3.640625 -0.015625 C 3.140625 -0.160156 2.734375 -0.335938 2.421875 -0.546875 C 1.785156 -0.929688 1.335938 -1.300781 1.078125 -1.65625 Z M 0.921875 -1.859375 "/></g></g></g><g fill="#b8eaf6" fill-opacity="1"><g transform="translate(160.354892, 204.937953)"><g><path d="M 6.25 -6.328125 L 5.078125 -6.40625 L 5.078125 -3.90625 C 5.078125 -3.582031 5.128906 -3.347656 5.234375 -3.203125 C 5.335938 -3.054688 5.53125 -2.984375 5.8125 -2.984375 C 6.09375 -2.984375 6.304688 -2.972656 6.453125 -2.953125 C 6.609375 -2.929688 6.769531 -2.875 6.9375 -2.78125 C 7.21875 -2.625 7.359375 -2.222656 7.359375 -1.578125 C 7.359375 -0.816406 7.191406 -0.351562 6.859375 -0.1875 C 6.671875 -0.09375 6.507812 -0.0351562 6.375 -0.015625 C 6.238281 -0.00390625 6.035156 0 5.765625 0 C 4.515625 0 3.5625 -0.28125 2.90625 -0.84375 C 2.257812 -1.414062 1.9375 -2.375 1.9375 -3.71875 L 1.9375 -6.40625 C 1.707031 -6.363281 1.457031 -6.34375 1.1875 -6.34375 C 0.925781 -6.34375 0.707031 -6.441406 0.53125 -6.640625 C 0.351562 -6.847656 0.265625 -7.195312 0.265625 -7.6875 C 0.265625 -8.1875 0.296875 -8.546875 0.359375 -8.765625 C 0.421875 -8.992188 0.503906 -9.15625 0.609375 -9.25 C 0.804688 -9.40625 1.050781 -9.484375 1.34375 -9.484375 L 1.9375 -9.421875 L 1.9375 -11.28125 C 1.9375 -11.5625 1.941406 -11.765625 1.953125 -11.890625 C 1.972656 -12.023438 2.035156 -12.171875 2.140625 -12.328125 C 2.296875 -12.628906 2.757812 -12.78125 3.53125 -12.78125 C 4.34375 -12.78125 4.828125 -12.554688 4.984375 -12.109375 C 5.046875 -11.921875 5.078125 -11.613281 5.078125 -11.1875 L 5.078125 -9.421875 C 5.609375 -9.460938 6.007812 -9.484375 6.28125 -9.484375 C 6.550781 -9.484375 6.753906 -9.472656 6.890625 -9.453125 C 7.035156 -9.441406 7.195312 -9.390625 7.375 -9.296875 C 7.6875 -9.140625 7.84375 -8.675781 7.84375 -7.90625 C 7.84375 -7.144531 7.679688 -6.679688 7.359375 -6.515625 C 7.179688 -6.421875 7.019531 -6.363281 6.875 -6.34375 C 6.738281 -6.332031 6.53125 -6.328125 6.25 -6.328125 Z M 6.25 -6.328125 "/></g></g></g><g fill="#b8eaf6" fill-opacity="1"><g transform="translate(170.635046, 204.937953)"><g><path d="M 6.90625 -8.515625 C 6.976562 -9.191406 7.453125 -9.53125 8.328125 -9.53125 C 8.796875 -9.53125 9.144531 -9.492188 9.375 -9.421875 C 9.601562 -9.347656 9.765625 -9.21875 9.859375 -9.03125 C 9.953125 -8.851562 10.003906 -8.695312 10.015625 -8.5625 C 10.035156 -8.425781 10.046875 -8.21875 10.046875 -7.9375 L 10.046875 -1.609375 C 10.046875 -1.328125 10.035156 -1.117188 10.015625 -0.984375 C 10.003906 -0.847656 9.957031 -0.6875 9.875 -0.5 C 9.707031 -0.1875 9.289062 -0.03125 8.625 -0.03125 C 7.96875 -0.03125 7.53125 -0.113281 7.3125 -0.28125 C 7.09375 -0.445312 6.960938 -0.6875 6.921875 -1 C 6.472656 -0.351562 5.726562 -0.03125 4.6875 -0.03125 C 3.644531 -0.03125 2.675781 -0.503906 1.78125 -1.453125 C 0.894531 -2.410156 0.453125 -3.519531 0.453125 -4.78125 C 0.453125 -6.039062 0.898438 -7.144531 1.796875 -8.09375 C 2.691406 -9.039062 3.675781 -9.515625 4.75 -9.515625 C 5.164062 -9.515625 5.539062 -9.441406 5.875 -9.296875 C 6.207031 -9.148438 6.441406 -9.015625 6.578125 -8.890625 C 6.710938 -8.765625 6.820312 -8.640625 6.90625 -8.515625 Z M 3.609375 -4.75 C 3.609375 -4.351562 3.765625 -3.992188 4.078125 -3.671875 C 4.398438 -3.359375 4.78125 -3.203125 5.21875 -3.203125 C 5.664062 -3.203125 6.035156 -3.363281 6.328125 -3.6875 C 6.628906 -4.007812 6.78125 -4.363281 6.78125 -4.75 C 6.78125 -5.144531 6.632812 -5.507812 6.34375 -5.84375 C 6.0625 -6.1875 5.679688 -6.359375 5.203125 -6.359375 C 4.734375 -6.359375 4.347656 -6.1875 4.046875 -5.84375 C 3.753906 -5.507812 3.609375 -5.144531 3.609375 -4.75 Z M 3.609375 -4.75 "/></g></g></g><g fill="#b8eaf6" fill-opacity="1"><g transform="translate(183.570357, 204.937953)"><g><path d="M 9.578125 -9.421875 C 10.285156 -9.109375 10.640625 -8.726562 10.640625 -8.28125 C 10.640625 -8.0625 10.59375 -7.851562 10.5 -7.65625 C 10.40625 -7.46875 10.359375 -7.367188 10.359375 -7.359375 L 5.625 3.234375 C 5.53125 3.460938 5.445312 3.632812 5.375 3.75 C 5.3125 3.875 5.207031 3.988281 5.0625 4.09375 C 4.914062 4.207031 4.734375 4.265625 4.515625 4.265625 C 4.296875 4.265625 3.976562 4.175781 3.5625 4 C 2.851562 3.6875 2.5 3.3125 2.5 2.875 C 2.5 2.582031 3.078125 1.203125 4.234375 -1.265625 L 0.625 -7.328125 C 0.382812 -7.722656 0.265625 -8.015625 0.265625 -8.203125 C 0.265625 -8.585938 0.59375 -8.972656 1.25 -9.359375 C 1.65625 -9.597656 1.972656 -9.71875 2.203125 -9.71875 C 2.429688 -9.71875 2.617188 -9.671875 2.765625 -9.578125 C 2.910156 -9.484375 3.015625 -9.382812 3.078125 -9.28125 C 3.148438 -9.175781 3.484375 -8.613281 4.078125 -7.59375 C 4.671875 -6.582031 5.238281 -5.632812 5.78125 -4.75 C 5.84375 -4.945312 6.164062 -5.691406 6.75 -6.984375 C 7.34375 -8.285156 7.660156 -8.976562 7.703125 -9.0625 C 7.753906 -9.144531 7.828125 -9.242188 7.921875 -9.359375 C 8.078125 -9.566406 8.296875 -9.671875 8.578125 -9.671875 C 8.859375 -9.671875 9.191406 -9.585938 9.578125 -9.421875 Z M 9.578125 -9.421875 "/></g></g></g><g fill="#b8eaf6" fill-opacity="1"><g transform="translate(196.650173, 204.937953)"><g/></g></g><g fill="#b8eaf6" fill-opacity="1"><g transform="translate(203.390117, 204.937953)"><g><path d="M 0.71875 -7.9375 C 0.71875 -8.21875 0.726562 -8.425781 0.75 -8.5625 C 0.769531 -8.695312 0.820312 -8.851562 0.90625 -9.03125 C 1.070312 -9.351562 1.539062 -9.515625 2.3125 -9.515625 C 2.894531 -9.515625 3.304688 -9.410156 3.546875 -9.203125 C 3.742188 -9.035156 3.851562 -8.773438 3.875 -8.421875 C 3.882812 -8.304688 3.890625 -8.132812 3.890625 -7.90625 L 3.890625 -1.578125 C 3.890625 -1.296875 3.878906 -1.082031 3.859375 -0.9375 C 3.835938 -0.800781 3.78125 -0.644531 3.6875 -0.46875 C 3.53125 -0.15625 3.066406 0 2.296875 0 C 1.535156 0 1.070312 -0.160156 0.90625 -0.484375 C 0.820312 -0.671875 0.769531 -0.828125 0.75 -0.953125 C 0.726562 -1.085938 0.71875 -1.300781 0.71875 -1.59375 Z M 3.6875 -11.28125 C 3.601562 -11.113281 3.445312 -10.992188 3.21875 -10.921875 C 2.988281 -10.847656 2.679688 -10.8125 2.296875 -10.8125 C 1.921875 -10.8125 1.617188 -10.847656 1.390625 -10.921875 C 1.160156 -10.992188 1 -11.117188 0.90625 -11.296875 C 0.820312 -11.472656 0.769531 -11.628906 0.75 -11.765625 C 0.726562 -11.910156 0.71875 -12.117188 0.71875 -12.390625 C 0.71875 -12.671875 0.726562 -12.878906 0.75 -13.015625 C 0.769531 -13.160156 0.820312 -13.316406 0.90625 -13.484375 C 1.070312 -13.804688 1.539062 -13.96875 2.3125 -13.96875 C 3.070312 -13.96875 3.53125 -13.804688 3.6875 -13.484375 C 3.78125 -13.304688 3.835938 -13.144531 3.859375 -13 C 3.878906 -12.863281 3.890625 -12.65625 3.890625 -12.375 C 3.890625 -12.101562 3.878906 -11.894531 3.859375 -11.75 C 3.835938 -11.613281 3.78125 -11.457031 3.6875 -11.28125 Z M 3.6875 -11.28125 "/></g></g></g><g fill="#b8eaf6" fill-opacity="1"><g transform="translate(210.166184, 204.937953)"><g><path d="M 6.015625 -9.53125 C 7.222656 -9.53125 8.226562 -9.066406 9.03125 -8.140625 C 9.832031 -7.222656 10.234375 -6.097656 10.234375 -4.765625 L 10.234375 -1.59375 C 10.234375 -1.3125 10.222656 -1.101562 10.203125 -0.96875 C 10.179688 -0.832031 10.128906 -0.675781 10.046875 -0.5 C 9.878906 -0.175781 9.410156 -0.015625 8.640625 -0.015625 C 7.785156 -0.015625 7.289062 -0.238281 7.15625 -0.6875 C 7.082031 -0.894531 7.046875 -1.203125 7.046875 -1.609375 L 7.046875 -4.796875 C 7.046875 -5.285156 6.90625 -5.664062 6.625 -5.9375 C 6.34375 -6.21875 5.960938 -6.359375 5.484375 -6.359375 C 5.003906 -6.359375 4.617188 -6.210938 4.328125 -5.921875 C 4.035156 -5.640625 3.890625 -5.265625 3.890625 -4.796875 L 3.890625 -1.59375 C 3.890625 -1.3125 3.878906 -1.101562 3.859375 -0.96875 C 3.835938 -0.832031 3.78125 -0.675781 3.6875 -0.5 C 3.53125 -0.175781 3.066406 -0.015625 2.296875 -0.015625 C 1.535156 -0.015625 1.070312 -0.175781 0.90625 -0.5 C 0.820312 -0.6875 0.769531 -0.847656 0.75 -0.984375 C 0.726562 -1.117188 0.71875 -1.328125 0.71875 -1.609375 L 0.71875 -8.015625 C 0.71875 -8.273438 0.726562 -8.472656 0.75 -8.609375 C 0.769531 -8.753906 0.828125 -8.910156 0.921875 -9.078125 C 1.085938 -9.378906 1.550781 -9.53125 2.3125 -9.53125 C 3.050781 -9.53125 3.503906 -9.390625 3.671875 -9.109375 C 3.785156 -8.898438 3.84375 -8.65625 3.84375 -8.375 C 3.894531 -8.457031 4.003906 -8.578125 4.171875 -8.734375 C 4.335938 -8.890625 4.503906 -9.015625 4.671875 -9.109375 C 5.078125 -9.390625 5.523438 -9.53125 6.015625 -9.53125 Z M 6.015625 -9.53125 "/></g></g></g><g fill="#b8eaf6" fill-opacity="1"><g transform="translate(223.282122, 204.937953)"><g/></g></g><g fill="#b8eaf6" fill-opacity="1"><g transform="translate(230.022071, 204.937953)"><g><path d="M 6.25 -6.328125 L 5.078125 -6.40625 L 5.078125 -3.90625 C 5.078125 -3.582031 5.128906 -3.347656 5.234375 -3.203125 C 5.335938 -3.054688 5.53125 -2.984375 5.8125 -2.984375 C 6.09375 -2.984375 6.304688 -2.972656 6.453125 -2.953125 C 6.609375 -2.929688 6.769531 -2.875 6.9375 -2.78125 C 7.21875 -2.625 7.359375 -2.222656 7.359375 -1.578125 C 7.359375 -0.816406 7.191406 -0.351562 6.859375 -0.1875 C 6.671875 -0.09375 6.507812 -0.0351562 6.375 -0.015625 C 6.238281 -0.00390625 6.035156 0 5.765625 0 C 4.515625 0 3.5625 -0.28125 2.90625 -0.84375 C 2.257812 -1.414062 1.9375 -2.375 1.9375 -3.71875 L 1.9375 -6.40625 C 1.707031 -6.363281 1.457031 -6.34375 1.1875 -6.34375 C 0.925781 -6.34375 0.707031 -6.441406 0.53125 -6.640625 C 0.351562 -6.847656 0.265625 -7.195312 0.265625 -7.6875 C 0.265625 -8.1875 0.296875 -8.546875 0.359375 -8.765625 C 0.421875 -8.992188 0.503906 -9.15625 0.609375 -9.25 C 0.804688 -9.40625 1.050781 -9.484375 1.34375 -9.484375 L 1.9375 -9.421875 L 1.9375 -11.28125 C 1.9375 -11.5625 1.941406 -11.765625 1.953125 -11.890625 C 1.972656 -12.023438 2.035156 -12.171875 2.140625 -12.328125 C 2.296875 -12.628906 2.757812 -12.78125 3.53125 -12.78125 C 4.34375 -12.78125 4.828125 -12.554688 4.984375 -12.109375 C 5.046875 -11.921875 5.078125 -11.613281 5.078125 -11.1875 L 5.078125 -9.421875 C 5.609375 -9.460938 6.007812 -9.484375 6.28125 -9.484375 C 6.550781 -9.484375 6.753906 -9.472656 6.890625 -9.453125 C 7.035156 -9.441406 7.195312 -9.390625 7.375 -9.296875 C 7.6875 -9.140625 7.84375 -8.675781 7.84375 -7.90625 C 7.84375 -7.144531 7.679688 -6.679688 7.359375 -6.515625 C 7.179688 -6.421875 7.019531 -6.363281 6.875 -6.34375 C 6.738281 -6.332031 6.53125 -6.328125 6.25 -6.328125 Z M 6.25 -6.328125 "/></g></g></g><g fill="#b8eaf6" fill-opacity="1"><g transform="translate(240.302223, 204.937953)"><g><path d="M 6 -9.484375 C 7.207031 -9.484375 8.210938 -9.023438 9.015625 -8.109375 C 9.816406 -7.203125 10.21875 -6.082031 10.21875 -4.75 L 10.21875 -1.578125 C 10.21875 -1.296875 10.207031 -1.082031 10.1875 -0.9375 C 10.164062 -0.800781 10.109375 -0.644531 10.015625 -0.46875 C 9.859375 -0.15625 9.394531 0 8.625 0 C 7.882812 0 7.425781 -0.15625 7.25 -0.46875 C 7.15625 -0.644531 7.097656 -0.804688 7.078125 -0.953125 C 7.054688 -1.097656 7.046875 -1.316406 7.046875 -1.609375 L 7.046875 -4.765625 C 7.046875 -5.265625 6.90625 -5.648438 6.625 -5.921875 C 6.351562 -6.203125 6.003906 -6.34375 5.578125 -6.34375 C 5.148438 -6.34375 4.769531 -6.210938 4.4375 -5.953125 C 4.113281 -5.691406 3.929688 -5.398438 3.890625 -5.078125 L 3.890625 -1.578125 C 3.890625 -1.296875 3.878906 -1.082031 3.859375 -0.9375 C 3.835938 -0.800781 3.78125 -0.644531 3.6875 -0.46875 C 3.53125 -0.15625 3.066406 0 2.296875 0 C 1.535156 0 1.070312 -0.160156 0.90625 -0.484375 C 0.820312 -0.671875 0.769531 -0.828125 0.75 -0.953125 C 0.726562 -1.085938 0.71875 -1.300781 0.71875 -1.59375 L 0.71875 -12.40625 C 0.71875 -12.675781 0.726562 -12.878906 0.75 -13.015625 C 0.769531 -13.160156 0.820312 -13.316406 0.90625 -13.484375 C 1.070312 -13.804688 1.539062 -13.96875 2.3125 -13.96875 C 3.070312 -13.96875 3.53125 -13.804688 3.6875 -13.484375 C 3.78125 -13.304688 3.835938 -13.144531 3.859375 -13 C 3.878906 -12.863281 3.890625 -12.660156 3.890625 -12.390625 L 3.890625 -8.390625 C 4.492188 -9.117188 5.195312 -9.484375 6 -9.484375 Z M 6 -9.484375 "/></g></g></g><g fill="#b8eaf6" fill-opacity="1"><g transform="translate(253.400101, 204.937953)"><g><path d="M 9.90625 -5.90625 C 9.90625 -5.164062 9.71875 -4.613281 9.34375 -4.25 C 8.976562 -3.894531 8.578125 -3.71875 8.140625 -3.71875 L 3.84375 -3.71875 C 3.84375 -3.382812 4.039062 -3.101562 4.4375 -2.875 C 4.84375 -2.644531 5.242188 -2.53125 5.640625 -2.53125 C 6.335938 -2.53125 6.882812 -2.601562 7.28125 -2.75 L 7.484375 -2.8125 C 7.773438 -2.945312 8.015625 -3.015625 8.203125 -3.015625 C 8.585938 -3.015625 8.921875 -2.742188 9.203125 -2.203125 C 9.359375 -1.878906 9.4375 -1.601562 9.4375 -1.375 C 9.4375 -0.300781 8.15625 0.234375 5.59375 0.234375 C 4.695312 0.234375 3.898438 0.0820312 3.203125 -0.21875 C 2.515625 -0.53125 1.976562 -0.941406 1.59375 -1.453125 C 0.832031 -2.421875 0.453125 -3.507812 0.453125 -4.71875 C 0.453125 -6.238281 0.941406 -7.453125 1.921875 -8.359375 C 2.910156 -9.265625 4.140625 -9.71875 5.609375 -9.71875 C 7.273438 -9.71875 8.503906 -9.128906 9.296875 -7.953125 C 9.703125 -7.328125 9.90625 -6.644531 9.90625 -5.90625 Z M 6.09375 -5.375 C 6.550781 -5.375 6.78125 -5.566406 6.78125 -5.953125 C 6.78125 -6.222656 6.671875 -6.441406 6.453125 -6.609375 C 6.242188 -6.785156 5.941406 -6.875 5.546875 -6.875 C 5.160156 -6.875 4.773438 -6.710938 4.390625 -6.390625 C 4.003906 -6.066406 3.8125 -5.726562 3.8125 -5.375 Z M 6.09375 -5.375 "/></g></g></g><g fill="#b8eaf6" fill-opacity="1"><g transform="translate(265.919985, 204.937953)"><g/></g></g><g fill="#b8eaf6" fill-opacity="1"><g transform="translate(272.659929, 204.937953)"><g><path d="M 0.71875 -12.421875 C 0.71875 -12.691406 0.726562 -12.894531 0.75 -13.03125 C 0.769531 -13.175781 0.820312 -13.335938 0.90625 -13.515625 C 1.070312 -13.847656 1.539062 -14.015625 2.3125 -14.015625 C 3.050781 -14.015625 3.507812 -13.847656 3.6875 -13.515625 C 3.78125 -13.335938 3.835938 -13.175781 3.859375 -13.03125 C 3.878906 -12.882812 3.890625 -12.675781 3.890625 -12.40625 L 3.890625 -4.03125 C 3.890625 -3.59375 3.925781 -3.316406 4 -3.203125 C 4.070312 -3.085938 4.226562 -3.03125 4.46875 -3.03125 C 4.71875 -3.03125 4.882812 -3.019531 4.96875 -3 C 5.050781 -2.988281 5.15625 -2.941406 5.28125 -2.859375 C 5.519531 -2.703125 5.640625 -2.273438 5.640625 -1.578125 C 5.640625 -0.816406 5.519531 -0.351562 5.28125 -0.1875 C 4.96875 0.03125 4.21875 0.0664062 3.03125 -0.078125 C 2.101562 -0.191406 1.503906 -0.5 1.234375 -1 C 0.890625 -1.582031 0.71875 -2.519531 0.71875 -3.8125 Z M 0.71875 -12.421875 "/></g></g></g><g fill="#b8eaf6" fill-opacity="1"><g transform="translate(280.736472, 204.937953)"><g><path d="M 0.453125 -4.75 C 0.453125 -6.195312 0.957031 -7.390625 1.96875 -8.328125 C 2.976562 -9.273438 4.132812 -9.75 5.4375 -9.75 C 6.738281 -9.75 7.890625 -9.28125 8.890625 -8.34375 C 9.890625 -7.40625 10.390625 -6.210938 10.390625 -4.765625 C 10.390625 -3.765625 10.128906 -2.875 9.609375 -2.09375 C 9.097656 -1.320312 8.46875 -0.753906 7.71875 -0.390625 C 6.976562 -0.0234375 6.210938 0.15625 5.421875 0.15625 C 4.628906 0.15625 3.859375 -0.0351562 3.109375 -0.421875 C 2.359375 -0.816406 1.726562 -1.394531 1.21875 -2.15625 C 0.707031 -2.925781 0.453125 -3.789062 0.453125 -4.75 Z M 4.234375 -3.453125 C 4.617188 -3.160156 5.007812 -3.015625 5.40625 -3.015625 C 5.800781 -3.015625 6.195312 -3.164062 6.59375 -3.46875 C 6.988281 -3.769531 7.1875 -4.210938 7.1875 -4.796875 C 7.1875 -5.390625 7 -5.832031 6.625 -6.125 C 6.257812 -6.414062 5.859375 -6.5625 5.421875 -6.5625 C 4.984375 -6.5625 4.578125 -6.410156 4.203125 -6.109375 C 3.835938 -5.804688 3.65625 -5.363281 3.65625 -4.78125 C 3.65625 -4.195312 3.847656 -3.753906 4.234375 -3.453125 Z M 4.234375 -3.453125 "/></g></g></g><g fill="#b8eaf6" fill-opacity="1"><g transform="translate(293.744044, 204.937953)"><g><path d="M 0.453125 -4.75 C 0.453125 -6.195312 0.957031 -7.390625 1.96875 -8.328125 C 2.976562 -9.273438 4.132812 -9.75 5.4375 -9.75 C 6.738281 -9.75 7.890625 -9.28125 8.890625 -8.34375 C 9.890625 -7.40625 10.390625 -6.210938 10.390625 -4.765625 C 10.390625 -3.765625 10.128906 -2.875 9.609375 -2.09375 C 9.097656 -1.320312 8.46875 -0.753906 7.71875 -0.390625 C 6.976562 -0.0234375 6.210938 0.15625 5.421875 0.15625 C 4.628906 0.15625 3.859375 -0.0351562 3.109375 -0.421875 C 2.359375 -0.816406 1.726562 -1.394531 1.21875 -2.15625 C 0.707031 -2.925781 0.453125 -3.789062 0.453125 -4.75 Z M 4.234375 -3.453125 C 4.617188 -3.160156 5.007812 -3.015625 5.40625 -3.015625 C 5.800781 -3.015625 6.195312 -3.164062 6.59375 -3.46875 C 6.988281 -3.769531 7.1875 -4.210938 7.1875 -4.796875 C 7.1875 -5.390625 7 -5.832031 6.625 -6.125 C 6.257812 -6.414062 5.859375 -6.5625 5.421875 -6.5625 C 4.984375 -6.5625 4.578125 -6.410156 4.203125 -6.109375 C 3.835938 -5.804688 3.65625 -5.363281 3.65625 -4.78125 C 3.65625 -4.195312 3.847656 -3.753906 4.234375 -3.453125 Z M 4.234375 -3.453125 "/></g></g></g><g fill="#b8eaf6" fill-opacity="1"><g transform="translate(306.751616, 204.937953)"><g><path d="M 0.71875 2.578125 L 0.71875 -7.96875 C 0.71875 -8.25 0.726562 -8.453125 0.75 -8.578125 C 0.769531 -8.710938 0.820312 -8.863281 0.90625 -9.03125 C 1.070312 -9.363281 1.472656 -9.53125 2.109375 -9.53125 C 2.753906 -9.53125 3.1875 -9.445312 3.40625 -9.28125 C 3.625 -9.113281 3.753906 -8.875 3.796875 -8.5625 C 4.253906 -9.195312 4.972656 -9.515625 5.953125 -9.515625 C 6.941406 -9.515625 7.875 -9.046875 8.75 -8.109375 C 9.625 -7.179688 10.0625 -6.101562 10.0625 -4.875 C 10.0625 -3.644531 9.625 -2.566406 8.75 -1.640625 C 7.882812 -0.710938 6.957031 -0.25 5.96875 -0.25 C 4.976562 -0.25 4.257812 -0.523438 3.8125 -1.078125 L 3.8125 2.5625 C 3.8125 2.84375 3.800781 3.046875 3.78125 3.171875 C 3.769531 3.304688 3.71875 3.460938 3.625 3.640625 C 3.53125 3.816406 3.375 3.941406 3.15625 4.015625 C 2.945312 4.085938 2.65625 4.125 2.28125 4.125 C 1.90625 4.125 1.601562 4.085938 1.375 4.015625 C 1.15625 3.941406 1 3.820312 0.90625 3.65625 C 0.820312 3.488281 0.769531 3.335938 0.75 3.203125 C 0.726562 3.066406 0.71875 2.859375 0.71875 2.578125 Z M 4.296875 -5.921875 C 4.023438 -5.597656 3.890625 -5.242188 3.890625 -4.859375 C 3.890625 -4.472656 4.03125 -4.117188 4.3125 -3.796875 C 4.59375 -3.484375 4.953125 -3.328125 5.390625 -3.328125 C 5.835938 -3.328125 6.210938 -3.484375 6.515625 -3.796875 C 6.828125 -4.109375 6.984375 -4.460938 6.984375 -4.859375 C 6.984375 -5.253906 6.835938 -5.613281 6.546875 -5.9375 C 6.253906 -6.257812 5.875 -6.421875 5.40625 -6.421875 C 4.945312 -6.421875 4.578125 -6.253906 4.296875 -5.921875 Z M 4.296875 -5.921875 "/></g></g></g><g fill="#ffffff" fill-opacity="1"><g transform="translate(150.757391, 176.612989)"><g><path d="M 2.421875 -4.90625 C 1.597656 -5.914062 1.1875 -6.828125 1.1875 -7.640625 C 1.1875 -8.453125 1.867188 -9.519531 3.234375 -10.84375 C 4.023438 -11.613281 4.863281 -12 5.75 -12 C 6.644531 -12 7.882812 -11.203125 9.46875 -9.609375 C 9.914062 -9.078125 10.550781 -8.5625 11.375 -8.0625 C 12.195312 -7.570312 12.957031 -7.328125 13.65625 -7.328125 C 16.601562 -7.328125 18.078125 -8.535156 18.078125 -10.953125 C 18.078125 -11.679688 17.671875 -12.289062 16.859375 -12.78125 C 16.054688 -13.269531 15.050781 -13.625 13.84375 -13.84375 C 12.644531 -14.070312 11.347656 -14.429688 9.953125 -14.921875 C 8.554688 -15.410156 7.253906 -15.988281 6.046875 -16.65625 C 4.835938 -17.320312 3.828125 -18.375 3.015625 -19.8125 C 2.210938 -21.257812 1.8125 -23 1.8125 -25.03125 C 1.8125 -27.820312 2.847656 -30.253906 4.921875 -32.328125 C 7.003906 -34.410156 9.835938 -35.453125 13.421875 -35.453125 C 15.328125 -35.453125 17.0625 -35.207031 18.625 -34.71875 C 20.195312 -34.226562 21.285156 -33.726562 21.890625 -33.21875 L 23.078125 -32.3125 C 24.066406 -31.394531 24.5625 -30.617188 24.5625 -29.984375 C 24.5625 -29.347656 24.179688 -28.472656 23.421875 -27.359375 C 22.335938 -25.773438 21.222656 -24.984375 20.078125 -24.984375 C 19.410156 -24.984375 18.585938 -25.300781 17.609375 -25.9375 C 17.515625 -26 17.332031 -26.15625 17.0625 -26.40625 C 16.789062 -26.664062 16.546875 -26.875 16.328125 -27.03125 C 15.660156 -27.445312 14.8125 -27.65625 13.78125 -27.65625 C 12.75 -27.65625 11.890625 -27.40625 11.203125 -26.90625 C 10.523438 -26.414062 10.1875 -25.734375 10.1875 -24.859375 C 10.1875 -23.992188 10.585938 -23.289062 11.390625 -22.75 C 12.203125 -22.207031 13.210938 -21.84375 14.421875 -21.65625 C 15.628906 -21.46875 16.945312 -21.175781 18.375 -20.78125 C 19.800781 -20.382812 21.113281 -19.898438 22.3125 -19.328125 C 23.519531 -18.753906 24.53125 -17.757812 25.34375 -16.34375 C 26.15625 -14.9375 26.5625 -13.203125 26.5625 -11.140625 C 26.5625 -9.078125 26.144531 -7.257812 25.3125 -5.6875 C 24.488281 -4.113281 23.410156 -2.898438 22.078125 -2.046875 C 19.515625 -0.367188 16.769531 0.46875 13.84375 0.46875 C 12.351562 0.46875 10.941406 0.285156 9.609375 -0.078125 C 8.273438 -0.441406 7.195312 -0.890625 6.375 -1.421875 C 4.695312 -2.441406 3.523438 -3.425781 2.859375 -4.375 Z M 2.421875 -4.90625 "/></g></g></g><g fill="#ffffff" fill-opacity="1"><g transform="translate(178.505653, 176.612989)"><g><path d="M 16.46875 -16.65625 L 13.375 -16.84375 L 13.375 -10.28125 C 13.375 -9.425781 13.507812 -8.804688 13.78125 -8.421875 C 14.050781 -8.046875 14.554688 -7.859375 15.296875 -7.859375 C 16.046875 -7.859375 16.617188 -7.832031 17.015625 -7.78125 C 17.410156 -7.726562 17.832031 -7.578125 18.28125 -7.328125 C 19.007812 -6.910156 19.375 -5.847656 19.375 -4.140625 C 19.375 -2.140625 18.925781 -0.914062 18.03125 -0.46875 C 17.5625 -0.25 17.144531 -0.113281 16.78125 -0.0625 C 16.414062 -0.0195312 15.882812 0 15.1875 0 C 11.882812 0 9.375 -0.742188 7.65625 -2.234375 C 5.945312 -3.722656 5.09375 -6.242188 5.09375 -9.796875 L 5.09375 -16.84375 C 4.488281 -16.75 3.835938 -16.703125 3.140625 -16.703125 C 2.441406 -16.703125 1.863281 -16.972656 1.40625 -17.515625 C 0.945312 -18.054688 0.71875 -18.972656 0.71875 -20.265625 C 0.71875 -21.566406 0.796875 -22.507812 0.953125 -23.09375 C 1.109375 -23.6875 1.332031 -24.113281 1.625 -24.375 C 2.125 -24.78125 2.753906 -24.984375 3.515625 -24.984375 L 5.09375 -24.796875 L 5.09375 -29.703125 C 5.09375 -30.429688 5.113281 -30.96875 5.15625 -31.3125 C 5.207031 -31.664062 5.359375 -32.046875 5.609375 -32.453125 C 6.023438 -33.253906 7.25 -33.65625 9.28125 -33.65625 C 11.4375 -33.65625 12.722656 -33.066406 13.140625 -31.890625 C 13.296875 -31.378906 13.375 -30.566406 13.375 -29.453125 L 13.375 -24.796875 C 14.769531 -24.921875 15.820312 -24.984375 16.53125 -24.984375 C 17.25 -24.984375 17.789062 -24.957031 18.15625 -24.90625 C 18.519531 -24.863281 18.941406 -24.71875 19.421875 -24.46875 C 20.242188 -24.050781 20.65625 -22.828125 20.65625 -20.796875 C 20.65625 -18.796875 20.226562 -17.578125 19.375 -17.140625 C 18.894531 -16.910156 18.472656 -16.769531 18.109375 -16.71875 C 17.742188 -16.675781 17.195312 -16.65625 16.46875 -16.65625 Z M 16.46875 -16.65625 "/></g></g></g><g fill="#ffffff" fill-opacity="1"><g transform="translate(199.876092, 176.612989)"><g><path d="M 1.1875 -12.515625 C 1.1875 -16.328125 2.519531 -19.46875 5.1875 -21.9375 C 7.851562 -24.414062 10.898438 -25.65625 14.328125 -25.65625 C 17.753906 -25.65625 20.78125 -24.425781 23.40625 -21.96875 C 26.039062 -19.507812 27.359375 -16.375 27.359375 -12.5625 C 27.359375 -9.925781 26.675781 -7.582031 25.3125 -5.53125 C 23.945312 -3.488281 22.289062 -1.984375 20.34375 -1.015625 C 18.394531 -0.0546875 16.375 0.421875 14.28125 0.421875 C 12.1875 0.421875 10.15625 -0.09375 8.1875 -1.125 C 6.21875 -2.15625 4.554688 -3.675781 3.203125 -5.6875 C 1.859375 -7.695312 1.1875 -9.972656 1.1875 -12.515625 Z M 11.125 -9.109375 C 12.144531 -8.335938 13.175781 -7.953125 14.21875 -7.953125 C 15.269531 -7.953125 16.316406 -8.347656 17.359375 -9.140625 C 18.410156 -9.929688 18.9375 -11.101562 18.9375 -12.65625 C 18.9375 -14.207031 18.441406 -15.363281 17.453125 -16.125 C 16.472656 -16.894531 15.410156 -17.28125 14.265625 -17.28125 C 13.128906 -17.28125 12.066406 -16.878906 11.078125 -16.078125 C 10.097656 -15.285156 9.609375 -14.117188 9.609375 -12.578125 C 9.609375 -11.046875 10.113281 -9.890625 11.125 -9.109375 Z M 11.125 -9.109375 "/></g></g></g><g fill="#ffffff" fill-opacity="1"><g transform="translate(228.433475, 176.612989)"><g><path d="M 9.75 -12.53125 C 9.75 -11.1875 10.191406 -10.140625 11.078125 -9.390625 C 11.972656 -8.648438 12.921875 -8.28125 13.921875 -8.28125 C 14.921875 -8.28125 15.851562 -8.570312 16.71875 -9.15625 C 17.59375 -9.75 18.300781 -10.046875 18.84375 -10.046875 C 19.800781 -10.046875 20.960938 -9.203125 22.328125 -7.515625 C 23.054688 -6.597656 23.421875 -5.773438 23.421875 -5.046875 C 23.421875 -3.835938 22.546875 -2.710938 20.796875 -1.671875 C 18.984375 -0.398438 16.765625 0.234375 14.140625 0.234375 C 11.179688 0.234375 8.335938 -0.828125 5.609375 -2.953125 C 4.316406 -3.960938 3.253906 -5.316406 2.421875 -7.015625 C 1.597656 -8.710938 1.1875 -10.582031 1.1875 -12.625 C 1.1875 -14.675781 1.597656 -16.535156 2.421875 -18.203125 C 3.253906 -19.867188 4.316406 -21.207031 5.609375 -22.21875 C 8.242188 -24.320312 11.054688 -25.375 14.046875 -25.375 C 15.242188 -25.375 16.414062 -25.207031 17.5625 -24.875 C 18.707031 -24.539062 19.546875 -24.210938 20.078125 -23.890625 L 20.84375 -23.421875 C 21.414062 -23.035156 21.859375 -22.734375 22.171875 -22.515625 C 23.003906 -21.878906 23.421875 -21.15625 23.421875 -20.34375 C 23.421875 -19.53125 23.085938 -18.617188 22.421875 -17.609375 C 21.273438 -15.859375 20.175781 -14.984375 19.125 -14.984375 C 18.53125 -14.984375 17.675781 -15.335938 16.5625 -16.046875 C 15.988281 -16.578125 15.171875 -16.84375 14.109375 -16.84375 C 13.046875 -16.84375 12.050781 -16.460938 11.125 -15.703125 C 10.207031 -14.941406 9.75 -13.882812 9.75 -12.53125 Z M 9.75 -12.53125 "/></g></g></g><g fill="#ffffff" fill-opacity="1"><g transform="translate(253.040412, 176.612989)"><g><path d="M 16.65625 -12.5625 L 22.984375 -7.328125 C 23.773438 -6.660156 24.273438 -6.148438 24.484375 -5.796875 C 24.691406 -5.453125 24.796875 -5.125 24.796875 -4.8125 C 24.796875 -4.050781 24.304688 -3.019531 23.328125 -1.71875 C 22.242188 -0.382812 21.289062 0.28125 20.46875 0.28125 C 19.769531 0.28125 18.800781 -0.175781 17.5625 -1.09375 L 17.09375 -1.421875 C 16.351562 -2.023438 15.222656 -3.082031 13.703125 -4.59375 C 12.179688 -6.101562 11.023438 -7.175781 10.234375 -7.8125 L 10.234375 -4.140625 C 10.234375 -3.410156 10.207031 -2.863281 10.15625 -2.5 C 10.113281 -2.132812 9.960938 -1.710938 9.703125 -1.234375 C 9.296875 -0.410156 8.078125 0 6.046875 0 C 4.046875 0 2.820312 -0.425781 2.375 -1.28125 C 2.15625 -1.757812 2.019531 -2.179688 1.96875 -2.546875 C 1.925781 -2.910156 1.90625 -3.457031 1.90625 -4.1875 L 1.90625 -32.703125 C 1.90625 -33.429688 1.925781 -33.976562 1.96875 -34.34375 C 2.019531 -34.707031 2.15625 -35.125 2.375 -35.59375 C 2.820312 -36.457031 4.0625 -36.890625 6.09375 -36.890625 C 7.613281 -36.890625 8.691406 -36.617188 9.328125 -36.078125 C 9.867188 -35.628906 10.15625 -34.929688 10.1875 -33.984375 C 10.21875 -33.691406 10.234375 -33.25 10.234375 -32.65625 L 10.234375 -17.5625 C 10.804688 -18.039062 11.671875 -18.847656 12.828125 -19.984375 C 13.984375 -21.128906 14.847656 -21.941406 15.421875 -22.421875 L 15.984375 -22.796875 C 17.097656 -23.648438 18.050781 -24.078125 18.84375 -24.078125 C 19.632812 -24.078125 20.546875 -23.4375 21.578125 -22.15625 C 22.609375 -20.875 23.125 -19.863281 23.125 -19.125 C 23.125 -18.394531 22.539062 -17.539062 21.375 -16.5625 Z M 16.65625 -12.5625 "/></g></g></g><g fill="#ffffff" fill-opacity="1"><g transform="translate(278.551674, 176.612989)"><g><path d="M 22.03125 -32.40625 L 34.890625 -5.859375 C 35.429688 -4.773438 35.703125 -3.960938 35.703125 -3.421875 C 35.703125 -2.285156 34.78125 -1.253906 32.9375 -0.328125 C 31.851562 0.203125 31 0.46875 30.375 0.46875 C 29.757812 0.46875 29.253906 0.328125 28.859375 0.046875 C 28.460938 -0.234375 28.175781 -0.53125 28 -0.84375 C 27.832031 -1.164062 27.585938 -1.644531 27.265625 -2.28125 L 24.796875 -7.421875 L 11.609375 -7.421875 L 9.140625 -2.28125 C 8.816406 -1.644531 8.566406 -1.179688 8.390625 -0.890625 C 8.222656 -0.609375 7.941406 -0.316406 7.546875 -0.015625 C 7.148438 0.273438 6.640625 0.421875 6.015625 0.421875 C 5.398438 0.421875 4.550781 0.15625 3.46875 -0.375 C 1.632812 -1.269531 0.71875 -2.285156 0.71875 -3.421875 C 0.71875 -3.960938 0.984375 -4.773438 1.515625 -5.859375 L 14.375 -32.453125 C 14.71875 -33.179688 15.242188 -33.769531 15.953125 -34.21875 C 16.671875 -34.664062 17.429688 -34.890625 18.234375 -34.890625 C 19.941406 -34.890625 21.207031 -34.0625 22.03125 -32.40625 Z M 18.1875 -20.984375 L 15.046875 -14.46875 L 21.375 -14.46875 Z M 18.1875 -20.984375 "/></g></g></g><g fill="#ffffff" fill-opacity="1"><g transform="translate(314.962339, 176.612989)"><g><path d="M 1.90625 -32.703125 C 1.90625 -33.429688 1.925781 -33.976562 1.96875 -34.34375 C 2.019531 -34.707031 2.15625 -35.125 2.375 -35.59375 C 2.820312 -36.457031 4.0625 -36.890625 6.09375 -36.890625 C 8.03125 -36.890625 9.234375 -36.457031 9.703125 -35.59375 C 9.960938 -35.125 10.113281 -34.695312 10.15625 -34.3125 C 10.207031 -33.9375 10.234375 -33.382812 10.234375 -32.65625 L 10.234375 -10.609375 C 10.234375 -9.472656 10.328125 -8.753906 10.515625 -8.453125 C 10.703125 -8.148438 11.117188 -8 11.765625 -8 C 12.421875 -8 12.859375 -7.972656 13.078125 -7.921875 C 13.304688 -7.878906 13.578125 -7.742188 13.890625 -7.515625 C 14.523438 -7.109375 14.84375 -5.984375 14.84375 -4.140625 C 14.84375 -2.140625 14.523438 -0.914062 13.890625 -0.46875 C 13.066406 0.09375 11.101562 0.1875 8 -0.1875 C 5.550781 -0.507812 3.960938 -1.320312 3.234375 -2.625 C 2.347656 -4.175781 1.90625 -6.648438 1.90625 -10.046875 Z M 1.90625 -32.703125 "/></g></g></g><g fill="#ffffff" fill-opacity="1"><g transform="translate(330.526118, 176.612989)"><g><path d="M 1.90625 -32.703125 C 1.90625 -33.429688 1.925781 -33.976562 1.96875 -34.34375 C 2.019531 -34.707031 2.15625 -35.125 2.375 -35.59375 C 2.820312 -36.457031 4.0625 -36.890625 6.09375 -36.890625 C 8.03125 -36.890625 9.234375 -36.457031 9.703125 -35.59375 C 9.960938 -35.125 10.113281 -34.695312 10.15625 -34.3125 C 10.207031 -33.9375 10.234375 -33.382812 10.234375 -32.65625 L 10.234375 -10.609375 C 10.234375 -9.472656 10.328125 -8.753906 10.515625 -8.453125 C 10.703125 -8.148438 11.117188 -8 11.765625 -8 C 12.421875 -8 12.859375 -7.972656 13.078125 -7.921875 C 13.304688 -7.878906 13.578125 -7.742188 13.890625 -7.515625 C 14.523438 -7.109375 14.84375 -5.984375 14.84375 -4.140625 C 14.84375 -2.140625 14.523438 -0.914062 13.890625 -0.46875 C 13.066406 0.09375 11.101562 0.1875 8 -0.1875 C 5.550781 -0.507812 3.960938 -1.320312 3.234375 -2.625 C 2.347656 -4.175781 1.90625 -6.648438 1.90625 -10.046875 Z M 1.90625 -32.703125 "/></g></g></g><g fill="#ffffff" fill-opacity="1"><g transform="translate(346.089898, 176.612989)"><g><path d="M 25.21875 -24.796875 C 27.09375 -23.972656 28.03125 -22.972656 28.03125 -21.796875 C 28.03125 -21.222656 27.898438 -20.679688 27.640625 -20.171875 C 27.390625 -19.671875 27.265625 -19.40625 27.265625 -19.375 L 14.796875 8.515625 C 14.546875 9.117188 14.332031 9.578125 14.15625 9.890625 C 13.976562 10.210938 13.695312 10.515625 13.3125 10.796875 C 12.9375 11.085938 12.460938 11.234375 11.890625 11.234375 C 11.328125 11.234375 10.488281 10.992188 9.375 10.515625 C 7.5 9.691406 6.5625 8.707031 6.5625 7.5625 C 6.5625 6.800781 8.085938 3.171875 11.140625 -3.328125 L 1.671875 -19.28125 C 1.035156 -20.320312 0.71875 -21.097656 0.71875 -21.609375 C 0.71875 -22.617188 1.570312 -23.632812 3.28125 -24.65625 C 4.363281 -25.289062 5.203125 -25.609375 5.796875 -25.609375 C 6.398438 -25.609375 6.894531 -25.476562 7.28125 -25.21875 C 7.664062 -24.96875 7.941406 -24.707031 8.109375 -24.4375 C 8.285156 -24.164062 9.160156 -22.6875 10.734375 -20 C 12.304688 -17.320312 13.804688 -14.828125 15.234375 -12.515625 C 15.390625 -13.023438 16.242188 -14.984375 17.796875 -18.390625 C 19.347656 -21.804688 20.179688 -23.625 20.296875 -23.84375 C 20.410156 -24.0625 20.59375 -24.332031 20.84375 -24.65625 C 21.257812 -25.195312 21.835938 -25.46875 22.578125 -25.46875 C 23.328125 -25.46875 24.207031 -25.242188 25.21875 -24.796875 Z M 25.21875 -24.796875 "/></g></g></g></svg>